<svg xmlns="http://www.w3.org/2000/svg" xmlns:xlink="http://www.w3.org/1999/xlink" contentStyleType="text/css" data-diagram-type="DESCRIPTION" height="535px" preserveAspectRatio="none" style="width:2234px;height:535px;background:#FFFFFF;" version="1.1" viewBox="0 0 2234 535" width="2234px" zoomAndPan="magnify"><defs/><g><!--cluster Mgmt Compartment--><g class="cluster" data-entity="Mgmt Compartment" data-source-line="4" data-uid="ent0002" id="cluster_Mgmt Compartment"><rect fill="none" height="97" rx="2.5" ry="2.5" style="stroke:#181818;stroke-width:1;" width="173.35" x="7" y="209.5659"/><text fill="#000000" font-family="sans-serif" font-size="14" font-weight="bold" lengthAdjust="spacing" textLength="158.3955" x="14.4772" y="224.561">Mgmt Compartment</text></g><!--cluster DMZ--><g class="cluster" data-entity="DMZ" data-source-line="12" data-uid="ent0005" id="cluster_DMZ"><rect fill="none" height="221" rx="2.5" ry="2.5" style="stroke:#181818;stroke-width:1;" width="1011.31" x="635.27" y="74.5659"/><text fill="#000000" font-family="sans-serif" font-size="14" font-weight="bold" lengthAdjust="spacing" textLength="35.7041" x="1123.0729" y="89.561">DMZ</text></g><!--cluster Web Server Compartment--><g class="cluster" data-entity="Web Server Compartment" data-source-line="20" data-uid="ent0010" id="cluster_Web Server Compartment"><rect fill="none" height="178" rx="2.5" ry="2.5" style="stroke:#181818;stroke-width:1;" width="432.73" x="1795.58" y="143.5659"/><text fill="#000000" font-family="sans-serif" font-size="14" font-weight="bold" lengthAdjust="spacing" textLength="205.0029" x="1909.4435" y="158.561">Web Server Compartment</text></g><!--entity MID--><g class="entity" data-entity="MID" data-source-line="5" data-uid="ent0003" id="entity_MID"><rect fill="#F1F1F1" height="46.2969" rx="2.5" ry="2.5" style="stroke:#181818;stroke-width:0.5;" width="117.3486" x="35" y="244.4159"/><rect fill="#F1F1F1" height="10" style="stroke:#181818;stroke-width:0.5;" width="15" x="132.3486" y="249.4159"/><rect fill="#F1F1F1" height="2" style="stroke:#181818;stroke-width:0.5;" width="4" x="130.3486" y="251.4159"/><rect fill="#F1F1F1" height="2" style="stroke:#181818;stroke-width:0.5;" width="4" x="130.3486" y="255.4159"/><text fill="#000000" font-family="sans-serif" font-size="14" lengthAdjust="spacing" textLength="77.3486" x="50" y="277.411">MID Server</text></g><!--entity Firewall--><g class="entity" data-entity="Firewall" data-source-line="13" data-uid="ent0006" id="entity_Firewall"><rect fill="#F1F1F1" height="46.2969" rx="2.5" ry="2.5" style="stroke:#181818;stroke-width:0.5;" width="94.1201" x="954.81" y="233.4159"/><rect fill="#F1F1F1" height="10" style="stroke:#181818;stroke-width:0.5;" width="15" x="1028.9301" y="238.4159"/><rect fill="#F1F1F1" height="2" style="stroke:#181818;stroke-width:0.5;" width="4" x="1026.9301" y="240.4159"/><rect fill="#F1F1F1" height="2" style="stroke:#181818;stroke-width:0.5;" width="4" x="1026.9301" y="244.4159"/><text fill="#000000" font-family="sans-serif" font-size="14" lengthAdjust="spacing" textLength="54.1201" x="969.81" y="266.411">Firewall</text></g><!--entity Proxy--><g class="entity" data-entity="Proxy" data-source-line="14" data-uid="ent0007" id="entity_Proxy"><rect fill="#F1F1F1" height="46.2969" rx="2.5" ry="2.5" style="stroke:#181818;stroke-width:0.5;" width="79.334" x="1251.37" y="178.4159"/><rect fill="#F1F1F1" height="10" style="stroke:#181818;stroke-width:0.5;" width="15" x="1310.704" y="183.4159"/><rect fill="#F1F1F1" height="2" style="stroke:#181818;stroke-width:0.5;" width="4" x="1308.704" y="185.4159"/><rect fill="#F1F1F1" height="2" style="stroke:#181818;stroke-width:0.5;" width="4" x="1308.704" y="189.4159"/><text fill="#000000" font-family="sans-serif" font-size="14" lengthAdjust="spacing" textLength="39.334" x="1266.37" y="211.411">Proxy</text></g><!--entity LB--><g class="entity" data-entity="LB" data-source-line="15" data-uid="ent0008" id="entity_LB"><rect fill="#F1F1F1" height="46.2969" rx="2.5" ry="2.5" style="stroke:#181818;stroke-width:0.5;" width="139.873" x="1490.71" y="178.4159"/><rect fill="#F1F1F1" height="10" style="stroke:#181818;stroke-width:0.5;" width="15" x="1610.583" y="183.4159"/><rect fill="#F1F1F1" height="2" style="stroke:#181818;stroke-width:0.5;" width="4" x="1608.583" y="185.4159"/><rect fill="#F1F1F1" height="2" style="stroke:#181818;stroke-width:0.5;" width="4" x="1608.583" y="189.4159"/><text fill="#000000" font-family="sans-serif" font-size="14" lengthAdjust="spacing" textLength="99.873" x="1505.71" y="211.411">Load Balancer</text></g><!--entity RELAY--><g class="entity" data-entity="RELAY" data-source-line="16" data-uid="ent0009" id="entity_RELAY"><rect fill="#F1F1F1" height="46.2969" rx="2.5" ry="2.5" style="stroke:#181818;stroke-width:0.5;" width="136.1064" x="651.27" y="166.4159"/><rect fill="#F1F1F1" height="10" style="stroke:#181818;stroke-width:0.5;" width="15" x="767.3764" y="171.4159"/><rect fill="#F1F1F1" height="2" style="stroke:#181818;stroke-width:0.5;" width="4" x="765.3764" y="173.4159"/><rect fill="#F1F1F1" height="2" style="stroke:#181818;stroke-width:0.5;" width="4" x="765.3764" y="177.4159"/><text fill="#000000" font-family="sans-serif" font-size="14" lengthAdjust="spacing" textLength="96.1064" x="666.27" y="199.411">Bastion/Relay</text></g><!--entity App1--><g class="entity" data-entity="App1" data-source-line="21" data-uid="ent0011" id="entity_App1"><rect fill="#F1F1F1" height="46.2969" rx="2.5" ry="2.5" style="stroke:#181818;stroke-width:0.5;" width="116.501" x="1811.58" y="178.4159"/><rect fill="#F1F1F1" height="10" style="stroke:#181818;stroke-width:0.5;" width="15" x="1908.081" y="183.4159"/><rect fill="#F1F1F1" height="2" style="stroke:#181818;stroke-width:0.5;" width="4" x="1906.081" y="185.4159"/><rect fill="#F1F1F1" height="2" style="stroke:#181818;stroke-width:0.5;" width="4" x="1906.081" y="189.4159"/><text fill="#000000" font-family="sans-serif" font-size="14" lengthAdjust="spacing" textLength="76.501" x="1826.58" y="211.411">Web App 1</text></g><!--entity App2--><g class="entity" data-entity="App2" data-source-line="22" data-uid="ent0012" id="entity_App2"><rect fill="#F1F1F1" height="46.2969" rx="2.5" ry="2.5" style="stroke:#181818;stroke-width:0.5;" width="116.501" x="1811.58" y="259.4159"/><rect fill="#F1F1F1" height="10" style="stroke:#181818;stroke-width:0.5;" width="15" x="1908.081" y="264.4159"/><rect fill="#F1F1F1" height="2" style="stroke:#181818;stroke-width:0.5;" width="4" x="1906.081" y="266.4159"/><rect fill="#F1F1F1" height="2" style="stroke:#181818;stroke-width:0.5;" width="4" x="1906.081" y="270.4159"/><text fill="#000000" font-family="sans-serif" font-size="14" lengthAdjust="spacing" textLength="76.501" x="1826.58" y="292.411">Web App 2</text></g><!--entity DB--><g class="entity" data-entity="DB" data-source-line="23" data-uid="ent0013" id="entity_DB"><path d="M2070.08,257.9159 C2070.08,247.9159 2141.1933,247.9159 2141.1933,247.9159 C2141.1933,247.9159 2212.3066,247.9159 2212.3066,257.9159 L2212.3066,283.2128 C2212.3066,293.2128 2141.1933,293.2128 2141.1933,293.2128 C2141.1933,293.2128 2070.08,293.2128 2070.08,283.2128 L2070.08,257.9159" fill="#F1F1F1" style="stroke:#181818;stroke-width:0.5;"/><path d="M2070.08,257.9159 C2070.08,267.9159 2141.1933,267.9159 2141.1933,267.9159 C2141.1933,267.9159 2212.3066,267.9159 2212.3066,257.9159" fill="none" style="stroke:#181818;stroke-width:0.5;"/><text fill="#000000" font-family="sans-serif" font-size="14" lengthAdjust="spacing" textLength="122.2266" x="2080.08" y="284.911">Central Database</text></g><!--entity TUNNEL--><g class="entity" data-entity="TUNNEL" data-source-line="9" data-uid="ent0004" id="entity_TUNNEL"><rect fill="#F1F1F1" height="62.5938" rx="2.5" ry="2.5" style="stroke:#181818;stroke-width:0.5;" width="140.5635" x="365.53" y="236.2659"/><rect fill="#F1F1F1" height="10" style="stroke:#181818;stroke-width:0.5;" width="15" x="486.0935" y="241.2659"/><rect fill="#F1F1F1" height="2" style="stroke:#181818;stroke-width:0.5;" width="4" x="484.0935" y="243.2659"/><rect fill="#F1F1F1" height="2" style="stroke:#181818;stroke-width:0.5;" width="4" x="484.0935" y="247.2659"/><text fill="#000000" font-family="sans-serif" font-size="14" lengthAdjust="spacing" textLength="100.5635" x="380.53" y="269.261">Secure Tunnel</text><text fill="#000000" font-family="sans-serif" font-size="14" lengthAdjust="spacing" textLength="72.4336" x="380.53" y="285.5579">(SSH/VPN)</text></g><!--entity CMDB--><g class="entity" data-entity="CMDB" data-source-line="27" data-uid="ent0014" id="entity_CMDB"><path d="M361.35,165.9159 C361.35,155.9159 435.8095,155.9159 435.8095,155.9159 C435.8095,155.9159 510.2689,155.9159 510.2689,165.9159 L510.2689,191.2128 C510.2689,201.2128 435.8095,201.2128 435.8095,201.2128 C435.8095,201.2128 361.35,201.2128 361.35,191.2128 L361.35,165.9159" fill="#F1F1F1" style="stroke:#181818;stroke-width:0.5;"/><path d="M361.35,165.9159 C361.35,175.9159 435.8095,175.9159 435.8095,175.9159 C435.8095,175.9159 510.2689,175.9159 510.2689,165.9159" fill="none" style="stroke:#181818;stroke-width:0.5;"/><text fill="#000000" font-family="sans-serif" font-size="14" lengthAdjust="spacing" textLength="128.9189" x="371.35" y="192.911">ServiceNow CMDB</text></g><!--entity Client--><g class="entity" data-entity="Client" data-source-line="45" data-uid="ent0024" id="entity_Client"><ellipse cx="719.3251" cy="319.9159" fill="#F1F1F1" rx="8" ry="8" style="stroke:#181818;stroke-width:0.5;"/><path d="M719.3251,327.9159 L719.3251,354.9159 M706.3251,335.9159 L732.3251,335.9159 M719.3251,354.9159 L706.3251,369.9159 M719.3251,354.9159 L732.3251,369.9159" fill="none" style="stroke:#181818;stroke-width:0.5;"/><text fill="#000000" font-family="sans-serif" font-size="14" lengthAdjust="spacing" textLength="40.5303" x="699.06" y="384.411">Client</text></g><!--link MID to App1--><g class="link" data-entity-1="MID" data-entity-2="App1" data-source-line="30" data-uid="lnk15" id="link_MID_App1"><path d="M110.75,244.1659 C154.83,183.0959 284.37,23.5659 434.81,23.5659 C434.81,23.5659 434.81,23.5659 1561.64,23.5659 C1683.38,23.5659 1795.931,125.2006 1842.931,173.6206" fill="none" id="MID-to-App1" style="stroke:#0000FF;stroke-width:1;"/><polygon fill="#0000FF" points="1847.11,177.9259,1843.7116,168.6819,1843.6275,174.3382,1837.9712,174.254,1847.11,177.9259" style="stroke:#0000FF;stroke-width:1;"/><text fill="#000000" font-family="sans-serif" font-size="13" lengthAdjust="spacing" textLength="107.5674" x="948.37" y="19.6328">Direct Discovery</text></g><!--link MID to App2--><g class="link" data-entity-1="MID" data-entity-2="App2" data-source-line="31" data-uid="lnk16" id="link_MID_App2"><path d="M119.75,290.8959 C173.23,338.1159 304.29,440.5659 434.81,440.5659 C434.81,440.5659 434.81,440.5659 1561.64,440.5659 C1677.99,440.5659 1789.9205,353.8064 1839.4905,309.8564" fill="none" id="MID-to-App2" style="stroke:#0000FF;stroke-width:1;"/><polygon fill="#0000FF" points="1843.98,305.8759,1834.5921,308.8537,1840.2388,309.193,1839.8994,314.8397,1843.98,305.8759" style="stroke:#0000FF;stroke-width:1;"/><text fill="#000000" font-family="sans-serif" font-size="13" lengthAdjust="spacing" textLength="107.5674" x="948.37" y="436.6328">Direct Discovery</text></g><!--link MID to DB--><g class="link" data-entity-1="MID" data-entity-2="DB" data-source-line="32" data-uid="lnk17" id="link_MID_DB"><path d="M104.16,291.0859 C119.06,325.3759 151.02,389.1759 196.35,427.5659 C284.18,501.9459 319.71,528.5659 434.81,528.5659 C434.81,528.5659 434.81,528.5659 1870.83,528.5659 C2006.17,528.5659 2097.4907,362.028 2127.4107,298.888" fill="none" id="MID-to-DB" style="stroke:#0000FF;stroke-width:1;"/><polygon fill="#0000FF" points="2129.98,293.4659,2122.5113,299.8861,2127.8389,297.9843,2129.7407,303.3119,2129.98,293.4659" style="stroke:#0000FF;stroke-width:1;"/><text fill="#000000" font-family="sans-serif" font-size="13" lengthAdjust="spacing" textLength="107.5674" x="1100.37" y="524.6328">Direct Discovery</text></g><!--link MID to TUNNEL--><g class="link" data-entity-1="MID" data-entity-2="TUNNEL" data-source-line="35" data-uid="lnk18" id="link_MID_TUNNEL"><path d="M152.76,267.5659 C211.58,267.5659 296.57,267.5659 359.21,267.5659" fill="none" id="MID-to-TUNNEL" style="stroke:#FF0000;stroke-width:1;stroke-dasharray:7.0,7.0;"/><polygon fill="#FF0000" points="365.21,267.5659,356.21,263.5659,360.21,267.5659,356.21,271.5659,365.21,267.5659" style="stroke:#FF0000;stroke-width:1;"/><text fill="#000000" font-family="sans-serif" font-size="13" lengthAdjust="spacing" textLength="133.1865" x="197.35" y="263.6328">Discovery via tunnel</text></g><!--link TUNNEL to RELAY--><g class="link" data-entity-1="TUNNEL" data-entity-2="RELAY" data-source-line="36" data-uid="lnk19" id="link_TUNNEL_RELAY"><path d="M506.4,248.2859 C550.52,236.0559 601.5278,221.9277 645.2078,209.8277" fill="none" id="TUNNEL-to-RELAY" style="stroke:#FF0000;stroke-width:1;stroke-dasharray:7.0,7.0;"/><polygon fill="#FF0000" points="650.99,208.2259,641.2488,206.7737,646.1715,209.5607,643.3845,214.4834,650.99,208.2259" style="stroke:#FF0000;stroke-width:1;"/><text fill="#000000" font-family="sans-serif" font-size="13" lengthAdjust="spacing" textLength="77.9111" x="541.27" y="213.6328">Traffic relay</text></g><!--link RELAY to Firewall--><g class="link" data-entity-1="RELAY" data-entity-2="Firewall" data-source-line="37" data-uid="lnk20" id="link_RELAY_Firewall"><path d="M787.52,205.6159 C839.07,217.9259 903.0542,233.202 948.5642,244.072" fill="none" id="RELAY-to-Firewall" style="stroke:#FF0000;stroke-width:1;stroke-dasharray:7.0,7.0;"/><polygon fill="#FF0000" points="954.4,245.4659,946.5755,239.4845,949.5368,244.3043,944.717,247.2657,954.4,245.4659" style="stroke:#FF0000;stroke-width:1;"/><text fill="#000000" font-family="sans-serif" font-size="13" lengthAdjust="spacing" textLength="98.4902" x="818.37" y="209.6328">DMZ Discovery</text></g><!--link RELAY to Proxy--><g class="link" data-entity-1="RELAY" data-entity-2="Proxy" data-source-line="38" data-uid="lnk21" id="link_RELAY_Proxy"><path d="M787.67,188.7859 C797.63,188.6959 807.77,188.6159 817.37,188.5659 C996.93,187.6359 1042.43,175.7359 1221.37,190.5659 C1231,191.3659 1235.3924,191.8065 1245.0224,193.3165" fill="none" id="RELAY-to-Proxy" style="stroke:#FF0000;stroke-width:1;stroke-dasharray:7.0,7.0;"/><polygon fill="#FF0000" points="1250.95,194.2459,1242.6783,188.9,1246.0104,193.4714,1241.439,196.8035,1250.95,194.2459" style="stroke:#FF0000;stroke-width:1;"/><text fill="#000000" font-family="sans-serif" font-size="13" lengthAdjust="spacing" textLength="98.4902" x="952.87" y="179.6328">DMZ Discovery</text></g><!--link RELAY to LB--><g class="link" data-entity-1="RELAY" data-entity-2="LB" data-source-line="39" data-uid="lnk22" id="link_RELAY_LB"><path d="M787.63,177.9359 C832.68,170.7559 893.39,162.2359 947.37,158.5659 C1006.59,154.5459 1221.3,153.4559 1330.71,160.5659 C1388.8,164.3359 1403.49,165.8559 1460.71,176.5659 C1470.37,178.3759 1474.6586,179.2053 1484.5886,181.5353" fill="none" id="RELAY-to-LB" style="stroke:#FF0000;stroke-width:1;stroke-dasharray:7.0,7.0;"/><polygon fill="#FF0000" points="1490.43,182.9059,1482.5817,176.9557,1485.5622,181.7637,1480.7542,184.7442,1490.43,182.9059" style="stroke:#FF0000;stroke-width:1;"/><text fill="#000000" font-family="sans-serif" font-size="13" lengthAdjust="spacing" textLength="98.4902" x="1104.87" y="151.6328">DMZ Discovery</text></g><!--link MID to CMDB--><g class="link" data-entity-1="MID" data-entity-2="CMDB" data-source-line="42" data-uid="lnk23" id="link_MID_CMDB"><path d="M152.76,252.3659 C210.25,237.3259 292.6755,215.7549 355.1155,199.4149" fill="none" id="MID-to-CMDB" style="stroke:#181818;stroke-width:1;"/><polygon fill="#181818" points="360.92,197.8959,351.2005,196.3047,356.0829,199.1617,353.2259,204.0441,360.92,197.8959" style="stroke:#181818;stroke-width:1;"/><text fill="#000000" font-family="sans-serif" font-size="13" lengthAdjust="spacing" textLength="115.8828" x="206.35" y="203.6328">Discovery Results</text></g><!--link Client to Firewall--><g class="link" data-entity-1="Client" data-entity-2="Firewall" data-source-line="46" data-uid="lnk25" id="link_Client_Firewall"><path d="M740.05,343.0259 C784.26,328.3659 886.5946,294.4434 948.8746,273.8034" fill="none" id="Client-to-Firewall" style="stroke:#008000;stroke-width:1;"/><polygon fill="#008000" points="954.57,271.9159,944.7686,270.9502,949.8238,273.4888,947.2852,278.5441,954.57,271.9159" style="stroke:#008000;stroke-width:1;"/><text fill="#000000" font-family="sans-serif" font-size="13" lengthAdjust="spacing" textLength="79.625" x="827.87" y="283.6328">HTTP/HTTPS</text></g><!--link Firewall to Proxy--><g class="link" data-entity-1="Firewall" data-entity-2="Proxy" data-source-line="47" data-uid="lnk26" id="link_Firewall_Proxy"><path d="M1049.33,247.6659 C1105.37,236.9359 1192.6571,220.2144 1245.1371,210.1644" fill="none" id="Firewall-to-Proxy" style="stroke:#008000;stroke-width:1;"/><polygon fill="#008000" points="1251.03,209.0359,1241.4383,206.8001,1246.1192,209.9763,1242.943,214.6573,1251.03,209.0359" style="stroke:#008000;stroke-width:1;"/><text fill="#000000" font-family="sans-serif" font-size="13" lengthAdjust="spacing" textLength="133.1484" x="1087.37" y="211.6328">Filtered HTTP/HTTPS</text></g><!--link Proxy to LB--><g class="link" data-entity-1="Proxy" data-entity-2="LB" data-source-line="48" data-uid="lnk27" id="link_Proxy_LB"><path d="M1330.95,201.5659 C1372.63,201.5659 1433.61,201.5659 1484.34,201.5659" fill="none" id="Proxy-to-LB" style="stroke:#008000;stroke-width:1;"/><polygon fill="#008000" points="1490.34,201.5659,1481.34,197.5659,1485.34,201.5659,1481.34,205.5659,1490.34,201.5659" style="stroke:#008000;stroke-width:1;"/><text fill="#000000" font-family="sans-serif" font-size="13" lengthAdjust="spacing" textLength="98.833" x="1361.71" y="197.6328">Load balancing</text></g><!--link LB to App1--><g class="link" data-entity-1="LB" data-entity-2="App1" data-source-line="49" data-uid="lnk28" id="link_LB_App1"><path d="M1630.97,201.5659 C1685.29,201.5659 1753.99,201.5659 1805.1,201.5659" fill="none" id="LB-to-App1" style="stroke:#008000;stroke-width:1;"/><polygon fill="#008000" points="1811.1,201.5659,1802.1,197.5659,1806.1,201.5659,1802.1,205.5659,1811.1,201.5659" style="stroke:#008000;stroke-width:1;"/><text fill="#000000" font-family="sans-serif" font-size="13" lengthAdjust="spacing" textLength="115.0894" x="1663.58" y="197.6328">Application traffic</text></g><!--link LB to App2--><g class="link" data-entity-1="LB" data-entity-2="App2" data-source-line="50" data-uid="lnk29" id="link_LB_App2"><path d="M1630.97,219.8459 C1685.29,234.1659 1754.1884,252.3358 1805.2984,265.8158" fill="none" id="LB-to-App2" style="stroke:#008000;stroke-width:1;"/><polygon fill="#008000" points="1811.1,267.3459,1803.4177,261.183,1806.2653,266.0708,1801.3775,268.9184,1811.1,267.3459" style="stroke:#008000;stroke-width:1;"/><text fill="#000000" font-family="sans-serif" font-size="13" lengthAdjust="spacing" textLength="115.0894" x="1663.58" y="226.6328">Application traffic</text></g><!--link App1 to DB--><g class="link" data-entity-1="App1" data-entity-2="DB" data-source-line="51" data-uid="lnk30" id="link_App1_DB"><path d="M1928.29,216.2859 C1969.7,226.8859 2019.9975,239.7775 2064.0875,251.0675" fill="none" id="App1-to-DB" style="stroke:#008000;stroke-width:1;"/><polygon fill="#008000" points="2069.9,252.5559,2062.1736,246.4484,2065.0563,251.3156,2060.1891,254.1983,2069.9,252.5559" style="stroke:#008000;stroke-width:1;"/><text fill="#000000" font-family="sans-serif" font-size="13" lengthAdjust="spacing" textLength="80.0566" x="1959.08" y="222.6328">SQL Queries</text></g><!--link App2 to DB--><g class="link" data-entity-1="App2" data-entity-2="DB" data-source-line="52" data-uid="lnk31" id="link_App2_DB"><path d="M1928.29,280.0059 C1969.7,278.1659 2019.816,275.9337 2063.906,273.9637" fill="none" id="App2-to-DB" style="stroke:#008000;stroke-width:1;"/><polygon fill="#008000" points="2069.9,273.6959,2060.7304,270.1016,2064.905,273.9191,2061.0875,278.0937,2069.9,273.6959" style="stroke:#008000;stroke-width:1;"/><text fill="#000000" font-family="sans-serif" font-size="13" lengthAdjust="spacing" textLength="80.0566" x="1959.08" y="271.6328">SQL Queries</text></g><!--SRC=[ZPDDRzim38Rl-XL4TbWAB0YQumu3whX51pX16diRzdLGRCOLeCY1BASBXlttKRITs7LQz6B9v4Fg9KLft3fm1LYLFph8bCNKgS88yNuocS126fdZ3es3UR7RI-juJoxXGMboZJ1QvBkUVmH_1K1AXi9uVBJu74ACze1s1B84-XN_cXDYJ2kBa5J6eFP2miKFpjy9xp6_p3YExwTVLyihJfPyMIvleoPR6zmHHwRdUkweoYUfTS-uiiMVOrzsLCWC0gcbIHlbKT0d0bdwRatNgEMHYVLjTFFzLDqtt3I5lzQ_ozIWYnwxsU_XcW-YtVLb_wprpyYVIIStigHJvWHPgI5iB4o5GUScx46bk2oUOAwBAcELv_2kUn467EqtRUTvScWfqu8AES9ueokyuYJ- -YS_ttd3xyadLWuV1n4NiDaRi32u1BMYMZK79S7LCpQscFLqqV-7J9QFcFbyzJnnpc6mQBo3ABvs2agit6vL2jOFXAYj0xYTFty83UnPzGiyZ-PRuIWOa7Kp_6L1x0fBB_fSFaMmerll6ijAkx9j8et0gQvnRX5DtJwPKZAQ5KM39Uh5os7YMPdtIRAQ-ayiJjOksbPufxH3ggSRKFkwD9V8ZtF3ZrEPN92jYpGpHejMgVHl55nTmWLozWB9IReizob-YE2XGgkm51py6l4V]--></g></svg>