<svg xmlns="http://www.w3.org/2000/svg" xmlns:xlink="http://www.w3.org/1999/xlink" contentStyleType="text/css" height="788px" preserveAspectRatio="none" style="width:628px;height:788px;background:#FFFFFF;" version="1.1" viewBox="0 0 628 788" width="628px" zoomAndPan="magnify"><defs/><g><rect fill="none" height="26.2969" id="_title" style="stroke:#000000;stroke-width:1.0;" width="416" x="104.5" y="15"/><text fill="#FFBF00" font-family="sans-serif" font-size="14" font-weight="bold" lengthAdjust="spacing" textLength="406" x="109.5" y="32.9951">Workflow for PDF to JPG and JPG to TXT Conversion</text><ellipse cx="345.5" cy="57.2969" fill="#222222" rx="10" ry="10" style="stroke:#222222;stroke-width:1.0;"/><rect fill="#FFBF00" height="33.9688" rx="12.5" ry="12.5" style="stroke:#181818;stroke-width:0.5;" width="280" x="205.5" y="87.2969"/><text fill="#000000" font-family="sans-serif" font-size="12" lengthAdjust="spacing" textLength="260" x="215.5" y="108.4355">Load configuration from pdf2image-ext.ini</text><polygon fill="#FFBF00" points="276,141.2656,415,141.2656,427,153.2656,415,165.2656,276,165.2656,264,153.2656,276,141.2656" style="stroke:#181818;stroke-width:0.5;"/><text fill="#000000" font-family="sans-serif" font-size="11" lengthAdjust="spacing" textLength="139" x="276" y="157.0737">Configuration file found?</text><text fill="#000000" font-family="sans-serif" font-size="11" lengthAdjust="spacing" textLength="21" x="243" y="150.6714">Yes</text><text fill="#000000" font-family="sans-serif" font-size="11" lengthAdjust="spacing" textLength="15" x="427" y="150.6714">No</text><rect fill="#FFBF00" height="33.9688" rx="12.5" ry="12.5" style="stroke:#181818;stroke-width:0.5;" width="356" x="11" y="175.2656"/><text fill="#000000" font-family="sans-serif" font-size="12" lengthAdjust="spacing" textLength="336" x="21" y="196.4043">Read parameters (JPGconverter, TXTconverter, folder)</text><rect fill="#FFBF00" height="33.9688" rx="12.5" ry="12.5" style="stroke:#181818;stroke-width:0.5;" width="230" x="387" y="175.2656"/><text fill="#000000" font-family="sans-serif" font-size="12" lengthAdjust="spacing" textLength="210" x="397" y="196.4043">Error: Configuration file not found</text><ellipse cx="502" cy="240.2344" fill="none" rx="11" ry="11" style="stroke:#222222;stroke-width:1.0;"/><ellipse cx="502" cy="240.2344" fill="#222222" rx="6" ry="6" style="stroke:#222222;stroke-width:1.0;"/><rect fill="#FFBF00" height="33.9688" rx="12.5" ry="12.5" style="stroke:#181818;stroke-width:0.5;" width="146" x="272.5" y="271.2344"/><text fill="#000000" font-family="sans-serif" font-size="12" lengthAdjust="spacing" textLength="126" x="282.5" y="292.373">Initialize parameters</text><rect fill="#FFBF00" height="33.9688" rx="12.5" ry="12.5" style="stroke:#181818;stroke-width:0.5;" width="150" x="270.5" y="325.2031"/><text fill="#000000" font-family="sans-serif" font-size="12" lengthAdjust="spacing" textLength="130" x="280.5" y="346.3418">Start folder traversal</text><polygon fill="#FFBF00" points="300,379.1719,391,379.1719,403,391.1719,391,403.1719,300,403.1719,288,391.1719,300,379.1719" style="stroke:#181818;stroke-width:0.5;"/><text fill="#000000" font-family="sans-serif" font-size="11" lengthAdjust="spacing" textLength="91" x="300" y="394.98">PDF files found?</text><text fill="#000000" font-family="sans-serif" font-size="11" lengthAdjust="spacing" textLength="21" x="267" y="388.5776">Yes</text><text fill="#000000" font-family="sans-serif" font-size="11" lengthAdjust="spacing" textLength="15" x="403" y="388.5776">No</text><rect fill="#FFBF00" height="33.9688" rx="12.5" ry="12.5" style="stroke:#181818;stroke-width:0.5;" width="259" x="94" y="461.1719"/><text fill="#000000" font-family="sans-serif" font-size="12" lengthAdjust="spacing" textLength="239" x="104" y="482.3105">Convert PDF to JPG using JPGconverter</text><polygon fill="#FFBF00" points="165.5,413.1719,281.5,413.1719,293.5,425.1719,281.5,437.1719,165.5,437.1719,153.5,425.1719,165.5,413.1719" style="stroke:#181818;stroke-width:0.5;"/><text fill="#000000" font-family="sans-serif" font-size="11" lengthAdjust="spacing" textLength="116" x="165.5" y="428.98">Processing PDF files</text><rect fill="#FFBF00" height="33.9688" rx="12.5" ry="12.5" style="stroke:#181818;stroke-width:0.5;" width="165" x="385" y="413.1719"/><text fill="#000000" font-family="sans-serif" font-size="12" lengthAdjust="spacing" textLength="145" x="395" y="434.3105">No PDF files to process</text><polygon fill="#FFBF00" points="345.5,523.1406,357.5,535.1406,345.5,547.1406,333.5,535.1406,345.5,523.1406" style="stroke:#181818;stroke-width:0.5;"/><polygon fill="#FFBF00" points="301,567.1406,390,567.1406,402,579.1406,390,591.1406,301,591.1406,289,579.1406,301,567.1406" style="stroke:#181818;stroke-width:0.5;"/><text fill="#000000" font-family="sans-serif" font-size="11" lengthAdjust="spacing" textLength="89" x="301" y="582.9487">JPG files found?</text><text fill="#000000" font-family="sans-serif" font-size="11" lengthAdjust="spacing" textLength="21" x="268" y="576.5464">Yes</text><text fill="#000000" font-family="sans-serif" font-size="11" lengthAdjust="spacing" textLength="15" x="402" y="576.5464">No</text><rect fill="#FFBF00" height="33.9688" rx="12.5" ry="12.5" style="stroke:#181818;stroke-width:0.5;" width="257" x="96.5" y="649.1406"/><text fill="#000000" font-family="sans-serif" font-size="12" lengthAdjust="spacing" textLength="237" x="106.5" y="670.2793">Convert JPG to TXT using TXTconverter</text><polygon fill="#FFBF00" points="168,601.1406,282,601.1406,294,613.1406,282,625.1406,168,625.1406,156,613.1406,168,601.1406" style="stroke:#181818;stroke-width:0.5;"/><text fill="#000000" font-family="sans-serif" font-size="11" lengthAdjust="spacing" textLength="114" x="168" y="616.9487">Processing JPG files</text><rect fill="#FFBF00" height="33.9688" rx="12.5" ry="12.5" style="stroke:#181818;stroke-width:0.5;" width="161" x="385.5" y="601.1406"/><text fill="#000000" font-family="sans-serif" font-size="12" lengthAdjust="spacing" textLength="141" x="395.5" y="622.2793">No JPG files to process</text><polygon fill="#FFBF00" points="345.5,711.1094,357.5,723.1094,345.5,735.1094,333.5,723.1094,345.5,711.1094" style="stroke:#181818;stroke-width:0.5;"/><ellipse cx="345.5" cy="766.1094" fill="none" rx="11" ry="11" style="stroke:#222222;stroke-width:1.0;"/><ellipse cx="345.5" cy="766.1094" fill="#222222" rx="6" ry="6" style="stroke:#222222;stroke-width:1.0;"/><line style="stroke:#000000;stroke-width:1.0;" x1="345.5" x2="345.5" y1="67.2969" y2="87.2969"/><polygon fill="#000000" points="341.5,77.2969,345.5,87.2969,349.5,77.2969,345.5,81.2969" style="stroke:#000000;stroke-width:1.0;"/><line style="stroke:#000000;stroke-width:1.0;" x1="502" x2="502" y1="209.2344" y2="229.2344"/><polygon fill="#000000" points="498,219.2344,502,229.2344,506,219.2344,502,223.2344" style="stroke:#000000;stroke-width:1.0;"/><line style="stroke:#000000;stroke-width:1.0;" x1="264" x2="189" y1="153.2656" y2="153.2656"/><line style="stroke:#000000;stroke-width:1.0;" x1="189" x2="189" y1="153.2656" y2="175.2656"/><polygon fill="#000000" points="185,165.2656,189,175.2656,193,165.2656,189,169.2656" style="stroke:#000000;stroke-width:1.0;"/><line style="stroke:#000000;stroke-width:1.0;" x1="427" x2="502" y1="153.2656" y2="153.2656"/><line style="stroke:#000000;stroke-width:1.0;" x1="502" x2="502" y1="153.2656" y2="175.2656"/><polygon fill="#000000" points="498,165.2656,502,175.2656,506,165.2656,502,169.2656" style="stroke:#000000;stroke-width:1.0;"/><line style="stroke:#000000;stroke-width:1.0;" x1="189" x2="189" y1="209.2344" y2="256.2344"/><line style="stroke:#000000;stroke-width:1.0;" x1="189" x2="345.5" y1="256.2344" y2="256.2344"/><line style="stroke:#000000;stroke-width:1.0;" x1="345.5" x2="345.5" y1="256.2344" y2="271.2344"/><polygon fill="#000000" points="341.5,261.2344,345.5,271.2344,349.5,261.2344,345.5,265.2344" style="stroke:#000000;stroke-width:1.0;"/><line style="stroke:#000000;stroke-width:1.0;" x1="345.5" x2="345.5" y1="121.2656" y2="141.2656"/><polygon fill="#000000" points="341.5,131.2656,345.5,141.2656,349.5,131.2656,345.5,135.2656" style="stroke:#000000;stroke-width:1.0;"/><line style="stroke:#000000;stroke-width:1.0;" x1="345.5" x2="345.5" y1="305.2031" y2="325.2031"/><polygon fill="#000000" points="341.5,315.2031,345.5,325.2031,349.5,315.2031,345.5,319.2031" style="stroke:#000000;stroke-width:1.0;"/><line style="stroke:#000000;stroke-width:1.0;" x1="223.5" x2="223.5" y1="437.1719" y2="461.1719"/><polygon fill="#000000" points="219.5,451.1719,223.5,461.1719,227.5,451.1719,223.5,455.1719" style="stroke:#000000;stroke-width:1.0;"/><line style="stroke:#000000;stroke-width:1.0;" x1="223.5" x2="223.5" y1="495.1406" y2="505.1406"/><line style="stroke:#000000;stroke-width:1.0;" x1="223.5" x2="365" y1="505.1406" y2="505.1406"/><polygon fill="#000000" points="361,476.1563,365,466.1563,369,476.1563,365,472.1563" style="stroke:#000000;stroke-width:1.0;"/><line style="stroke:#000000;stroke-width:1.0;" x1="365" x2="365" y1="425.1719" y2="505.1406"/><line style="stroke:#000000;stroke-width:1.0;" x1="365" x2="293.5" y1="425.1719" y2="425.1719"/><polygon fill="#000000" points="303.5,421.1719,293.5,425.1719,303.5,429.1719,299.5,425.1719" style="stroke:#000000;stroke-width:1.0;"/><line style="stroke:#000000;stroke-width:1.0;" x1="153.5" x2="82" y1="425.1719" y2="425.1719"/><polygon fill="#000000" points="78,471.1563,82,481.1563,86,471.1563,82,475.1563" style="stroke:#000000;stroke-width:1.0;"/><line style="stroke:#000000;stroke-width:1.0;" x1="82" x2="82" y1="425.1719" y2="535.1406"/><line style="stroke:#000000;stroke-width:1.0;" x1="82" x2="333.5" y1="535.1406" y2="535.1406"/><polygon fill="#000000" points="323.5,531.1406,333.5,535.1406,323.5,539.1406,327.5,535.1406" style="stroke:#000000;stroke-width:1.0;"/><line style="stroke:#000000;stroke-width:1.0;" x1="288" x2="223.5" y1="391.1719" y2="391.1719"/><line style="stroke:#000000;stroke-width:1.0;" x1="223.5" x2="223.5" y1="391.1719" y2="413.1719"/><polygon fill="#000000" points="219.5,403.1719,223.5,413.1719,227.5,403.1719,223.5,407.1719" style="stroke:#000000;stroke-width:1.0;"/><line style="stroke:#000000;stroke-width:1.0;" x1="403" x2="467.5" y1="391.1719" y2="391.1719"/><line style="stroke:#000000;stroke-width:1.0;" x1="467.5" x2="467.5" y1="391.1719" y2="413.1719"/><polygon fill="#000000" points="463.5,403.1719,467.5,413.1719,471.5,403.1719,467.5,407.1719" style="stroke:#000000;stroke-width:1.0;"/><line style="stroke:#000000;stroke-width:1.0;" x1="467.5" x2="467.5" y1="447.1406" y2="535.1406"/><line style="stroke:#000000;stroke-width:1.0;" x1="467.5" x2="357.5" y1="535.1406" y2="535.1406"/><polygon fill="#000000" points="367.5,531.1406,357.5,535.1406,367.5,539.1406,363.5,535.1406" style="stroke:#000000;stroke-width:1.0;"/><line style="stroke:#000000;stroke-width:1.0;" x1="345.5" x2="345.5" y1="359.1719" y2="379.1719"/><polygon fill="#000000" points="341.5,369.1719,345.5,379.1719,349.5,369.1719,345.5,373.1719" style="stroke:#000000;stroke-width:1.0;"/><line style="stroke:#000000;stroke-width:1.0;" x1="225" x2="225" y1="625.1406" y2="649.1406"/><polygon fill="#000000" points="221,639.1406,225,649.1406,229,639.1406,225,643.1406" style="stroke:#000000;stroke-width:1.0;"/><line style="stroke:#000000;stroke-width:1.0;" x1="225" x2="225" y1="683.1094" y2="693.1094"/><line style="stroke:#000000;stroke-width:1.0;" x1="225" x2="365.5" y1="693.1094" y2="693.1094"/><polygon fill="#000000" points="361.5,664.125,365.5,654.125,369.5,664.125,365.5,660.125" style="stroke:#000000;stroke-width:1.0;"/><line style="stroke:#000000;stroke-width:1.0;" x1="365.5" x2="365.5" y1="613.1406" y2="693.1094"/><line style="stroke:#000000;stroke-width:1.0;" x1="365.5" x2="294" y1="613.1406" y2="613.1406"/><polygon fill="#000000" points="304,609.1406,294,613.1406,304,617.1406,300,613.1406" style="stroke:#000000;stroke-width:1.0;"/><line style="stroke:#000000;stroke-width:1.0;" x1="156" x2="84.5" y1="613.1406" y2="613.1406"/><polygon fill="#000000" points="80.5,659.125,84.5,669.125,88.5,659.125,84.5,663.125" style="stroke:#000000;stroke-width:1.0;"/><line style="stroke:#000000;stroke-width:1.0;" x1="84.5" x2="84.5" y1="613.1406" y2="723.1094"/><line style="stroke:#000000;stroke-width:1.0;" x1="84.5" x2="333.5" y1="723.1094" y2="723.1094"/><polygon fill="#000000" points="323.5,719.1094,333.5,723.1094,323.5,727.1094,327.5,723.1094" style="stroke:#000000;stroke-width:1.0;"/><line style="stroke:#000000;stroke-width:1.0;" x1="289" x2="225" y1="579.1406" y2="579.1406"/><line style="stroke:#000000;stroke-width:1.0;" x1="225" x2="225" y1="579.1406" y2="601.1406"/><polygon fill="#000000" points="221,591.1406,225,601.1406,229,591.1406,225,595.1406" style="stroke:#000000;stroke-width:1.0;"/><line style="stroke:#000000;stroke-width:1.0;" x1="402" x2="466" y1="579.1406" y2="579.1406"/><line style="stroke:#000000;stroke-width:1.0;" x1="466" x2="466" y1="579.1406" y2="601.1406"/><polygon fill="#000000" points="462,591.1406,466,601.1406,470,591.1406,466,595.1406" style="stroke:#000000;stroke-width:1.0;"/><line style="stroke:#000000;stroke-width:1.0;" x1="466" x2="466" y1="635.1094" y2="723.1094"/><line style="stroke:#000000;stroke-width:1.0;" x1="466" x2="357.5" y1="723.1094" y2="723.1094"/><polygon fill="#000000" points="367.5,719.1094,357.5,723.1094,367.5,727.1094,363.5,723.1094" style="stroke:#000000;stroke-width:1.0;"/><line style="stroke:#000000;stroke-width:1.0;" x1="345.5" x2="345.5" y1="547.1406" y2="567.1406"/><polygon fill="#000000" points="341.5,557.1406,345.5,567.1406,349.5,557.1406,345.5,561.1406" style="stroke:#000000;stroke-width:1.0;"/><line style="stroke:#000000;stroke-width:1.0;" x1="345.5" x2="345.5" y1="735.1094" y2="755.1094"/><polygon fill="#000000" points="341.5,745.1094,345.5,755.1094,349.5,745.1094,345.5,749.1094" style="stroke:#000000;stroke-width:1.0;"/><!--SRC=[bPD1Rzim38Nl-XK4Td60RMXxj0z3ayv3Yw48DWDRZvfDfK8SqP2Ofjsl7oLdYPCvMUkBBUZflO-a79RMTThh5LHUko2VwEeNkBouK01Xjtc3HgzRhl2PPzIIXr-jhfS7aifoYoMvhU1TMKxB8vSacSh1XQUrQthXvj4oZiZ8D-XFXSrerP53nyTkOx5xyUiyzqNyAxhsdZRd15DwVWtJTStsoVBBMxJdOalooxFC9pTt80UDKHo703_4rhIq0ICxyviIcE1k_WMqQz9RbjNFIbhddj07Iqx59x3shFAlf1keoHcxM7lDiWl6qmgwnbpPbLxW1xbE7wspXR86ijcXqagyYOtvD05-H0VP0uQ9i0Fatr2S4p-ov48cB7LYaENxY3HO6MfbwfD2OHiGidlQcdoMjlWSHc8TSHzT96LWwXIwnXgbybjdsUhM_iO1GA7oxx7cRHQmrx4VkYrKAYrsBZg7KnN9Jo2vsTnJZI5Oju3TaLwGYFisyt0GwoGUbjyp2sxoF2xwdlREqQFh4uk_zKNQwFj6sjsH4Th1FUbfX-FvB-qUPeGsJkOF]--></g></svg>